<svg 
 xmlns="http://www.w3.org/2000/svg"
 xmlns:xlink="http://www.w3.org/1999/xlink"
 width="1169px" height="322px">
<path fill-rule="evenodd"  stroke="rgb(129, 129, 129)" stroke-width="0px" stroke-linecap="butt" stroke-linejoin="miter" fill="rgb(40, 24, 92)"
 d="M0.156,0.844 L1168.125,0.844 L1168.125,321.156 L0.156,321.156 L0.156,0.844 Z"/>
<path fill-rule="evenodd"  fill="rgb(255, 255, 255)"
 d="M1067.134,225.359 L1067.134,49.598 L1073.313,49.598 L1073.313,225.359 L1067.134,225.359 ZM1025.505,202.702 C1020.622,210.637 1013.948,216.776 1005.480,221.125 C997.013,225.473 987.438,227.647 976.759,227.647 C965.316,227.647 956.105,224.540 949.125,218.321 C942.144,212.105 938.654,204.000 938.654,194.005 C938.654,182.639 943.784,173.542 954.045,166.714 C964.304,159.888 977.941,156.398 994.953,156.244 L1025.505,156.244 L1025.505,138.165 C1025.505,127.791 1022.244,119.742 1015.721,114.020 C1009.199,108.299 999.873,105.438 987.744,105.438 C976.453,105.438 967.032,108.338 959.480,114.135 C951.928,119.933 948.152,127.105 948.152,135.647 L941.973,135.418 C941.973,125.349 946.396,116.806 955.246,109.787 C964.095,102.769 974.928,99.259 987.744,99.259 C1001.093,99.259 1011.697,102.597 1019.555,109.272 C1027.411,115.948 1031.455,125.349 1031.684,137.478 L1031.684,196.637 C1031.684,210.217 1032.752,219.448 1034.888,224.329 L1034.888,225.359 L1027.794,225.359 C1026.267,220.095 1025.505,212.543 1025.505,202.702 ZM1025.505,162.423 L996.898,162.423 C979.199,162.423 965.659,165.933 956.276,172.951 C948.647,178.672 944.834,185.806 944.834,194.349 C944.834,201.901 947.846,208.309 953.873,213.572 C959.899,218.836 967.528,221.468 976.759,221.468 C988.354,221.468 998.328,218.876 1006.682,213.687 C1015.035,208.500 1021.309,201.214 1025.505,191.831 L1025.505,162.423 ZM873.568,227.647 C864.185,227.647 855.832,225.739 848.508,221.926 C841.185,218.112 835.463,212.848 831.344,206.135 L831.344,272.960 L825.165,272.960 L825.165,101.548 L831.344,101.548 L831.344,123.632 C835.615,115.776 841.374,109.749 848.623,105.553 C855.869,101.358 864.108,99.259 873.339,99.259 C887.832,99.259 899.237,104.809 907.553,115.908 C915.867,127.008 920.026,142.590 920.026,162.652 L920.026,164.597 C920.026,183.898 915.867,199.231 907.553,210.597 C899.237,221.965 887.909,227.647 873.568,227.647 ZM903.147,120.486 C896.090,110.455 886.193,105.438 873.453,105.438 C863.078,105.438 854.267,108.127 847.021,113.505 C839.772,118.884 834.548,126.607 831.344,136.677 L831.344,194.578 C834.548,203.122 839.792,209.739 847.078,214.431 C854.362,219.122 863.230,221.468 873.682,221.468 C886.344,221.468 896.185,216.433 903.205,206.364 C910.222,196.294 913.732,181.572 913.732,162.194 C913.732,144.421 910.203,130.518 903.147,120.486 ZM775.355,219.752 C767.077,225.015 757.713,227.647 747.263,227.647 C736.810,227.647 727.447,225.055 719.171,219.866 C710.893,214.679 704.467,207.413 699.890,198.068 C695.313,188.724 692.985,178.214 692.910,166.543 L692.910,161.050 C692.910,149.227 695.178,138.604 699.718,129.182 C704.256,119.761 710.664,112.418 718.942,107.155 C727.218,101.891 736.582,99.259 747.034,99.259 C757.407,99.259 766.715,101.816 774.954,106.926 C783.193,112.038 789.619,119.284 794.235,128.667 C798.850,138.050 801.196,148.617 801.273,160.364 L801.273,165.856 C801.273,177.757 799.022,188.398 794.521,197.781 C790.019,207.165 783.631,214.488 775.355,219.752 ZM795.093,161.050 C795.093,150.905 793.034,141.522 788.914,132.901 C784.795,124.281 779.091,117.550 771.807,112.705 C764.522,107.861 756.263,105.438 747.034,105.438 C732.920,105.438 721.402,110.816 712.477,121.573 C703.551,132.329 699.089,145.871 699.089,162.194 L699.089,165.856 C699.089,176.155 701.129,185.595 705.211,194.177 C709.291,202.759 714.974,209.453 722.260,214.259 C729.544,219.065 737.880,221.468 747.263,221.468 C761.375,221.468 772.875,216.167 781.763,205.563 C790.649,194.960 795.093,181.304 795.093,164.597 L795.093,161.050 ZM648.829,49.598 L682.013,49.598 L682.013,225.359 L648.829,225.359 L648.829,49.598 ZM574.016,227.647 C556.166,227.647 541.919,221.926 531.278,210.483 C520.636,199.040 515.315,183.478 515.315,163.796 L515.315,162.309 C515.315,150.028 517.679,139.080 522.409,129.468 C527.139,119.856 533.947,112.418 542.835,107.155 C551.721,101.891 562.039,99.259 573.787,99.259 C590.494,99.259 604.129,104.371 614.695,114.593 C625.260,124.816 631.153,138.699 632.374,156.244 L632.603,164.712 C632.603,183.707 627.300,198.945 616.698,210.426 C606.094,221.908 591.867,227.647 574.016,227.647 ZM592.782,135.433 C588.280,129.093 581.949,125.921 573.787,125.921 C565.701,125.921 559.445,129.073 555.021,135.375 C550.596,141.680 548.385,151.440 548.385,164.656 C548.385,176.423 550.596,185.420 555.021,191.645 C559.445,197.873 565.778,200.985 574.016,200.985 C582.026,200.985 588.280,197.910 592.782,191.760 C597.283,185.609 599.534,175.774 599.534,162.250 C599.534,150.714 597.283,141.774 592.782,135.433 ZM462.472,251.105 C455.072,267.277 442.866,275.363 425.855,275.363 C421.049,275.363 416.167,274.638 411.209,273.189 L411.209,248.130 L416.243,248.244 C422.498,248.244 427.171,247.289 430.261,245.383 C433.350,243.476 435.771,240.309 437.527,235.886 L441.417,225.702 L398.049,101.548 L433.636,101.548 L456.636,178.558 L479.522,101.548 L514.994,101.548 L465.218,244.582 L462.472,251.105 ZM398.988,174.209 L320.147,174.209 C321.214,182.296 324.438,188.781 329.816,193.662 C335.194,198.545 342.003,200.985 350.242,200.985 C362.981,200.985 372.936,196.371 380.107,187.140 L396.356,205.334 C391.396,212.353 384.684,217.826 376.217,221.754 C367.749,225.682 358.366,227.647 348.067,227.647 C329.911,227.647 315.130,222.079 303.727,210.941 C292.321,199.804 286.620,184.966 286.620,166.428 L286.620,163.224 C286.620,150.791 289.023,139.672 293.829,129.869 C298.635,120.067 305.443,112.515 314.254,107.212 C323.065,101.911 333.115,99.259 344.406,99.259 C361.341,99.259 374.672,104.600 384.398,115.279 C394.125,125.960 398.988,141.102 398.988,160.707 L398.988,174.209 ZM366.490,149.023 C366.336,141.667 364.354,135.978 360.540,131.955 C356.725,127.932 351.309,125.921 344.291,125.921 C337.730,125.921 332.409,128.143 328.329,132.588 C324.247,137.033 321.635,143.393 320.490,151.667 L366.490,151.667 L366.490,149.023 ZM271.309,131.642 C258.797,131.642 250.598,135.876 246.707,144.344 L246.707,225.359 L213.638,225.359 L213.638,101.548 L244.876,101.548 L245.792,116.309 C252.429,104.943 261.620,99.259 273.369,99.259 C277.031,99.259 280.463,99.756 283.667,100.747 L283.210,132.558 C278.708,131.948 274.742,131.642 271.309,131.642 ZM171.094,225.359 L139.283,175.697 L127.382,187.597 L127.382,225.359 L94.313,225.359 L94.313,49.598 L127.382,49.598 L127.382,146.976 L133.790,138.737 L165.487,101.548 L205.193,101.548 L160.452,153.155 L209.083,225.359 L171.094,225.359 Z"/>
</svg>