<?xml version="1.0" standalone="no"?>
<!DOCTYPE svg PUBLIC "-//W3C//DTD SVG 20010904//EN"
 "http://www.w3.org/TR/2001/REC-SVG-20010904/DTD/svg10.dtd">
<svg version="1.0" xmlns="http://www.w3.org/2000/svg"
 width="520.000000pt" height="520.000000pt" viewBox="0 0 520.000000 520.000000"
 preserveAspectRatio="xMidYMid meet">
<metadata>
Created by potrace 1.11, written by Peter Selinger 2001-2013
</metadata>
<g transform="translate(0.000000,520.000000) scale(0.100000,-0.100000)"
fill="#000000" stroke="none">
<path d="M420 4946 c-145 -41 -257 -154 -296 -300 -20 -75 -21 -3986 0 -4061
40 -150 151 -261 300 -301 41 -11 204 -14 844 -14 l792 0 0 2345 0 2345 -797
-1 c-606 -1 -809 -4 -843 -13z"/>
<path d="M2950 3674 c0 -707 4 -1284 9 -1282 4 2 239 275 522 606 l514 604
528 -1 527 -1 0 497 c0 540 -1 553 -56 653 -32 58 -107 131 -168 162 -94 48
-88 48 -1008 48 l-868 0 0 -1286z"/>
<path d="M4645 3130 c-219 -256 -483 -562 -585 -680 -102 -118 -191 -223 -198
-232 -12 -15 44 -102 474 -740 268 -398 528 -781 577 -852 147 -211 139 -306
135 1499 l-3 1469 -400 -464z"/>
<path d="M3117 1442 l-157 -157 0 -508 0 -507 580 0 c319 0 580 3 580 6 0 6
-825 1301 -839 1316 -4 4 -77 -63 -164 -150z"/>
</g>
</svg>
